{
	"asset":{
		"version":"2.0",
		"generator":"Maxon Cinema 4D 2024.5.1 (#200000219)"
	},
	"scenes":[{
		"nodes":[0,
		1]
	}],
	"nodes":[{
		"name":"Sphere",
		"mesh":0,
		"translation":[0.0,
		0.40073028206825259,
		0.0],
		"rotation":[0.0,
		0.0,
		0.0,
		-1.0],
		"scale":[1.0,
		1.0,
		1.0]
	},
	{
		"name":"Coffee Table 15",
		"children":[2,
		3,
		4,
		5]
	},
	{
		"name":"Glass Tabletop",
		"mesh":1,
		"translation":[0.0,
		0.3460099995136261,
		0.0],
		"rotation":[0.0,
		0.0,
		0.0,
		-1.0],
		"scale":[1.0,
		1.0,
		1.0]
	},
	{
		"name":"Leg_0",
		"mesh":2,
		"children":[6,
		7]
	},
	{
		"name":"Leg_1",
		"translation":[0.0,
		0.0,
		0.0],
		"rotation":[0.0,
		-0.8660253882408142,
		0.0,
		-0.5],
		"scale":[1.0,
		1.0,
		1.0],
		"children":[8]
	},
	{
		"name":"Leg_2",
		"translation":[0.0,
		0.0,
		0.0],
		"rotation":[0.0,
		-0.8660253882408142,
		0.0,
		0.5],
		"scale":[1.0,
		1.0,
		1.0],
		"children":[9]
	},
	{
		"name":"Spacer",
		"mesh":3,
		"translation":[0.3382326662540436,
		0.3240000009536743,
		0.2013443261384964],
		"rotation":[1.6653345369377349e-16,
		-0.8660253882408142,
		2.8844439116302279e-16,
		0.5],
		"scale":[1.0,
		1.0,
		1.0]
	},
	{
		"name":"Bolt",
		"mesh":4,
		"translation":[0.24815833568572999,
		0.11300896108150482,
		-0.13978655636310578],
		"rotation":[-0.515495240688324,
		0.41102156043052676,
		-0.32218050956726076,
		-0.6793568134307861],
		"scale":[1.0,
		1.0,
		1.0],
		"children":[10]
	},
	{
		"name":"Leg_0",
		"mesh":5,
		"children":[11,
		12]
	},
	{
		"name":"Leg_0",
		"mesh":6,
		"children":[13,
		14]
	},
	{
		"name":"Washer",
		"mesh":7,
		"translation":[-6.217248832021758e-16,
		-0.0004580693494062871,
		-7.260858538696876e-16],
		"rotation":[1.3596311327747833e-32,
		1.1102230246251566e-16,
		1.2246468525851679e-16,
		1.0],
		"scale":[1.0,
		1.0,
		1.0]
	},
	{
		"name":"Spacer",
		"mesh":3,
		"translation":[0.3382326662540436,
		0.3240000009536743,
		0.2013443261384964],
		"rotation":[1.6653345369377349e-16,
		-0.8660253882408142,
		2.8844439116302279e-16,
		0.5],
		"scale":[1.0,
		1.0,
		1.0]
	},
	{
		"name":"Bolt",
		"mesh":4,
		"translation":[0.24815833568572999,
		0.11300896108150482,
		-0.13978655636310578],
		"rotation":[-0.515495240688324,
		0.41102156043052676,
		-0.32218050956726076,
		-0.6793568134307861],
		"scale":[1.0,
		1.0,
		1.0],
		"children":[15]
	},
	{
		"name":"Spacer",
		"mesh":3,
		"translation":[0.3382326662540436,
		0.3240000009536743,
		0.2013443261384964],
		"rotation":[1.6653345369377349e-16,
		-0.8660253882408142,
		2.8844439116302279e-16,
		0.5],
		"scale":[1.0,
		1.0,
		1.0]
	},
	{
		"name":"Bolt",
		"mesh":4,
		"translation":[0.24815833568572999,
		0.11300896108150482,
		-0.13978655636310578],
		"rotation":[-0.515495240688324,
		0.41102156043052676,
		-0.32218050956726076,
		-0.6793568134307861],
		"scale":[1.0,
		1.0,
		1.0],
		"children":[16]
	},
	{
		"name":"Washer",
		"mesh":7,
		"translation":[-6.217248832021758e-16,
		-0.0004580693494062871,
		-7.260858538696876e-16],
		"rotation":[1.3596311327747833e-32,
		1.1102230246251566e-16,
		1.2246468525851679e-16,
		1.0],
		"scale":[1.0,
		1.0,
		1.0]
	},
	{
		"name":"Washer",
		"mesh":7,
		"translation":[-6.217248832021758e-16,
		-0.0004580693494062871,
		-7.260858538696876e-16],
		"rotation":[1.3596311327747833e-32,
		1.1102230246251566e-16,
		1.2246468525851679e-16,
		1.0],
		"scale":[1.0,
		1.0,
		1.0]
	}],
	"meshes":[{
		"name":"Sphere",
		"primitives":[{
			"attributes":{
				"POSITION":1,
				"NORMAL":2,
				"TEXCOORD_0":3
			},
			"indices":0,
			"material":0
		}]
	},
	{
		"name":"Glass Tabletop",
		"primitives":[{
			"attributes":{
				"POSITION":5,
				"NORMAL":6,
				"TEXCOORD_0":7
			},
			"indices":4,
			"material":1
		}]
	},
	{
		"name":"Leg_0",
		"primitives":[{
			"attributes":{
				"POSITION":9,
				"NORMAL":10,
				"TEXCOORD_0":11
			},
			"indices":8,
			"material":2
		}]
	},
	{
		"name":"Spacer",
		"primitives":[{
			"attributes":{
				"POSITION":13,
				"NORMAL":14,
				"TEXCOORD_0":15
			},
			"indices":12,
			"material":3
		}]
	},
	{
		"name":"Bolt",
		"primitives":[{
			"attributes":{
				"POSITION":17,
				"NORMAL":18,
				"TEXCOORD_0":19
			},
			"indices":16,
			"material":4
		}]
	},
	{
		"name":"Leg_0",
		"primitives":[{
			"attributes":{
				"POSITION":21,
				"NORMAL":22,
				"TEXCOORD_0":23
			},
			"indices":20,
			"material":2
		}]
	},
	{
		"name":"Leg_0",
		"primitives":[{
			"attributes":{
				"POSITION":25,
				"NORMAL":26,
				"TEXCOORD_0":27
			},
			"indices":24,
			"material":2
		}]
	},
	{
		"name":"Washer",
		"primitives":[{
			"attributes":{
				"POSITION":29,
				"NORMAL":30,
				"TEXCOORD_0":31
			},
			"indices":28,
			"material":5
		}]
	}],
	"accessors":[{
		"bufferView":0,
		"type":"SCALAR",
		"min":[0],
		"componentType":5123,
		"count":2880,
		"byteOffset":0,
		"max":[2879]
	},
	{
		"bufferView":1,
		"type":"VEC3",
		"min":[-0.05446782335639,
		-0.05446782335639,
		-0.05446782335639],
		"componentType":5126,
		"count":2880,
		"byteOffset":0,
		"max":[0.05446782335639,
		0.05446782335639,
		0.05446782335639]
	},
	{
		"bufferView":1,
		"type":"VEC3",
		"min":[-1.0,
		-1.0,
		-1.0],
		"componentType":5126,
		"count":2880,
		"byteOffset":12,
		"max":[1.0,
		1.0,
		1.0]
	},
	{
		"bufferView":1,
		"type":"VEC2",
		"min":[0.0,
		0.0],
		"componentType":5126,
		"count":2880,
		"byteOffset":24,
		"max":[1.0,
		1.0]
	},
	{
		"bufferView":2,
		"type":"SCALAR",
		"min":[0],
		"componentType":5123,
		"count":17280,
		"byteOffset":0,
		"max":[17279]
	},
	{
		"bufferView":3,
		"type":"VEC3",
		"min":[-0.5,
		-0.012000000104308129,
		-0.5],
		"componentType":5126,
		"count":17280,
		"byteOffset":0,
		"max":[0.5,
		0.0,
		0.5]
	},
	{
		"bufferView":3,
		"type":"VEC3",
		"min":[-0.9999737739562988,
		-1.0,
		-0.9999737739562988],
		"componentType":5126,
		"count":17280,
		"byteOffset":12,
		"max":[0.9999737739562988,
		1.0,
		0.9999737739562988]
	},
	{
		"bufferView":3,
		"type":"VEC2",
		"min":[0.0017254381673410535,
		0.0017254380509257317],
		"componentType":5126,
		"count":17280,
		"byteOffset":24,
		"max":[0.9969925284385681,
		0.998274564743042]
	},
	{
		"bufferView":4,
		"type":"SCALAR",
		"min":[0],
		"componentType":5123,
		"count":12396,
		"byteOffset":0,
		"max":[12395]
	},
	{
		"bufferView":5,
		"type":"VEC3",
		"min":[-0.15587760508060456,
		0.00023656351550016552,
		-0.24947811663150788],
		"componentType":5126,
		"count":12396,
		"byteOffset":0,
		"max":[0.3858248293399811,
		0.32384932041168215,
		0.3248702585697174]
	},
	{
		"bufferView":5,
		"type":"VEC3",
		"min":[-0.9943643808364868,
		-1.0,
		-0.996993362903595],
		"componentType":5126,
		"count":12396,
		"byteOffset":12,
		"max":[0.9933188557624817,
		0.9999890327453613,
		0.9984120726585388]
	},
	{
		"bufferView":5,
		"type":"VEC2",
		"min":[0.00601570401340723,
		0.16026851534843446],
		"componentType":5126,
		"count":12396,
		"byteOffset":24,
		"max":[0.9879201054573059,
		0.23637747764587403]
	},
	{
		"bufferView":6,
		"type":"SCALAR",
		"min":[0],
		"componentType":5123,
		"count":3024,
		"byteOffset":0,
		"max":[3023]
	},
	{
		"bufferView":7,
		"type":"VEC3",
		"min":[-0.017500000074505807,
		-1.35224826327319e-16,
		-0.017500000074505807],
		"componentType":5126,
		"count":3024,
		"byteOffset":0,
		"max":[0.017500000074505807,
		0.009999999776482582,
		0.017500000074505807]
	},
	{
		"bufferView":7,
		"type":"VEC3",
		"min":[-0.9995758533477783,
		-1.0,
		-0.9995758533477783],
		"componentType":5126,
		"count":3024,
		"byteOffset":12,
		"max":[0.9995758533477783,
		1.0,
		0.9995758533477783]
	},
	{
		"bufferView":7,
		"type":"VEC2",
		"min":[0.0,
		0.0],
		"componentType":5126,
		"count":3024,
		"byteOffset":24,
		"max":[1.0,
		1.0]
	},
	{
		"bufferView":8,
		"type":"SCALAR",
		"min":[0],
		"componentType":5123,
		"count":936,
		"byteOffset":0,
		"max":[935]
	},
	{
		"bufferView":9,
		"type":"VEC3",
		"min":[-0.003983597736805677,
		-7.713545900585179e-17,
		-0.003983597736805677],
		"componentType":5126,
		"count":936,
		"byteOffset":0,
		"max":[0.003983597736805677,
		0.003387665841728449,
		0.003983597736805677]
	},
	{
		"bufferView":9,
		"type":"VEC3",
		"min":[-0.9977867603302002,
		-1.0,
		-0.9977867603302002],
		"componentType":5126,
		"count":936,
		"byteOffset":12,
		"max":[0.9977867603302002,
		1.0,
		0.9977867603302002]
	},
	{
		"bufferView":9,
		"type":"VEC2",
		"min":[0.01625053770840168,
		0.01625053584575653],
		"componentType":5126,
		"count":936,
		"byteOffset":24,
		"max":[0.9837493896484375,
		0.9837493896484375]
	},
	{
		"bufferView":10,
		"type":"SCALAR",
		"min":[0],
		"componentType":5123,
		"count":12396,
		"byteOffset":0,
		"max":[12395]
	},
	{
		"bufferView":11,
		"type":"VEC3",
		"min":[-0.15587760508060456,
		0.00023656351550016552,
		-0.24947811663150788],
		"componentType":5126,
		"count":12396,
		"byteOffset":0,
		"max":[0.3858248293399811,
		0.32384932041168215,
		0.3248702585697174]
	},
	{
		"bufferView":11,
		"type":"VEC3",
		"min":[-0.9943643808364868,
		-1.0,
		-0.996993362903595],
		"componentType":5126,
		"count":12396,
		"byteOffset":12,
		"max":[0.9933188557624817,
		0.9999890327453613,
		0.9984120726585388]
	},
	{
		"bufferView":11,
		"type":"VEC2",
		"min":[0.00601570401340723,
		0.16026851534843446],
		"componentType":5126,
		"count":12396,
		"byteOffset":24,
		"max":[0.9879201054573059,
		0.23637747764587403]
	},
	{
		"bufferView":12,
		"type":"SCALAR",
		"min":[0],
		"componentType":5123,
		"count":12396,
		"byteOffset":0,
		"max":[12395]
	},
	{
		"bufferView":13,
		"type":"VEC3",
		"min":[-0.15587760508060456,
		0.00023656351550016552,
		-0.24947811663150788],
		"componentType":5126,
		"count":12396,
		"byteOffset":0,
		"max":[0.3858248293399811,
		0.32384932041168215,
		0.3248702585697174]
	},
	{
		"bufferView":13,
		"type":"VEC3",
		"min":[-0.9943643808364868,
		-1.0,
		-0.996993362903595],
		"componentType":5126,
		"count":12396,
		"byteOffset":12,
		"max":[0.9933188557624817,
		0.9999890327453613,
		0.9984120726585388]
	},
	{
		"bufferView":13,
		"type":"VEC2",
		"min":[0.00601570401340723,
		0.16026851534843446],
		"componentType":5126,
		"count":12396,
		"byteOffset":24,
		"max":[0.9879201054573059,
		0.23637747764587403]
	},
	{
		"bufferView":14,
		"type":"SCALAR",
		"min":[0],
		"componentType":5123,
		"count":2016,
		"byteOffset":0,
		"max":[2015]
	},
	{
		"bufferView":15,
		"type":"VEC3",
		"min":[-0.004999999888241291,
		-0.0005000000237487257,
		-0.004999999888241291],
		"componentType":5126,
		"count":2016,
		"byteOffset":0,
		"max":[0.004999999888241291,
		0.0005000000237487257,
		0.004999999888241291]
	},
	{
		"bufferView":15,
		"type":"VEC3",
		"min":[-0.9990398287773132,
		-1.0,
		-0.9990398287773132],
		"componentType":5126,
		"count":2016,
		"byteOffset":12,
		"max":[0.9990398287773132,
		1.0,
		0.9990398287773132]
	},
	{
		"bufferView":15,
		"type":"VEC2",
		"min":[0.001617899863049388,
		0.001617899863049388],
		"componentType":5126,
		"count":2016,
		"byteOffset":24,
		"max":[0.9983117580413818,
		0.9983820915222168]
	}],
	"bufferViews":[{
		"buffer":0,
		"byteOffset":0,
		"byteLength":5760,
		"target":34963
	},
	{
		"buffer":0,
		"byteOffset":5760,
		"byteLength":92160,
		"target":34962,
		"byteStride":32
	},
	{
		"buffer":1,
		"byteOffset":0,
		"byteLength":34560,
		"target":34963
	},
	{
		"buffer":1,
		"byteOffset":34560,
		"byteLength":552960,
		"target":34962,
		"byteStride":32
	},
	{
		"buffer":2,
		"byteOffset":0,
		"byteLength":24792,
		"target":34963
	},
	{
		"buffer":2,
		"byteOffset":24792,
		"byteLength":396672,
		"target":34962,
		"byteStride":32
	},
	{
		"buffer":3,
		"byteOffset":0,
		"byteLength":6048,
		"target":34963
	},
	{
		"buffer":3,
		"byteOffset":6048,
		"byteLength":96768,
		"target":34962,
		"byteStride":32
	},
	{
		"buffer":4,
		"byteOffset":0,
		"byteLength":1872,
		"target":34963
	},
	{
		"buffer":4,
		"byteOffset":1872,
		"byteLength":29952,
		"target":34962,
		"byteStride":32
	},
	{
		"buffer":5,
		"byteOffset":0,
		"byteLength":24792,
		"target":34963
	},
	{
		"buffer":5,
		"byteOffset":24792,
		"byteLength":396672,
		"target":34962,
		"byteStride":32
	},
	{
		"buffer":6,
		"byteOffset":0,
		"byteLength":24792,
		"target":34963
	},
	{
		"buffer":6,
		"byteOffset":24792,
		"byteLength":396672,
		"target":34962,
		"byteStride":32
	},
	{
		"buffer":7,
		"byteOffset":0,
		"byteLength":4032,
		"target":34963
	},
	{
		"buffer":7,
		"byteOffset":4032,
		"byteLength":64512,
		"target":34962,
		"byteStride":32
	}],
	"buffers":[{
		"uri":"data:application/octet-stream;base64,",
		"byteLength":97920
	},
	{
		"uri":"data:application/octet-stream;base64,",
		"byteLength":587520
	},
	{
		"uri":"data:application/octet-stream;base64,",
		"byteLength":421464
	},
	{
		"uri":"data:application/octet-stream;base64,",
		"byteLength":102816
	},
	{
		"uri":"data:application/octet-stream;base64,",
		"byteLength":31824
	},
	{
		"uri":"data:application/octet-stream;base64,",
		"byteLength":421464
	},
	{
		"uri":"data:application/octet-stream;base64,",
		"byteLength":421464
	},
	{
		"uri":"data:application/octet-stream;base64,",
		"byteLength":68544
	}],
	"materials":[{
		"pbrMetallicRoughness":{
			"baseColorFactor":[0.0,
			0.0,
			0.0,
			1.0],
			"metallicFactor":1.0,
			"roughnessFactor":0.1
		},
		"emissiveFactor":[0.0,
		0.0,
		0.0],
		"alphaMode":"OPAQUE",
		"doubleSided":false,
		"name":"Sphere"
	},
	{
		"pbrMetallicRoughness":{
			"baseColorFactor":[0.011519999999999999,
			0.021855999999999998,
			0.048,
			0.31999999999999997],
			"metallicFactor":0.0,
			"roughnessFactor":0.03
		},
		"emissiveFactor":[0.0,
		0.0,
		0.0],
		"alphaMode":"BLEND",
		"doubleSided":false,
		"name":"Glass"
	},
	{
		"pbrMetallicRoughness":{
			"baseColorFactor":[0.35000000000000006,
			0.15849166666666673,
			0.11549999999999997,
			1.0],
			"metallicFactor":0.0,
			"roughnessFactor":0.5
		},
		"emissiveFactor":[0.0,
		0.0,
		0.0],
		"alphaMode":"OPAQUE",
		"doubleSided":false,
		"name":"Wood"
	},
	{
		"pbrMetallicRoughness":{
			"baseColorFactor":[1.0,
			1.0,
			1.0,
			1.0],
			"metallicFactor":1.0,
			"roughnessFactor":1.0
		},
		"emissiveFactor":[0.0,
		0.0,
		0.0],
		"alphaMode":"OPAQUE",
		"doubleSided":false,
		"name":""
	},
	{
		"pbrMetallicRoughness":{
			"baseColorFactor":[1.0,
			1.0,
			1.0,
			1.0],
			"metallicFactor":1.0,
			"roughnessFactor":1.0
		},
		"emissiveFactor":[0.0,
		0.0,
		0.0],
		"alphaMode":"OPAQUE",
		"doubleSided":false,
		"name":""
	},
	{
		"pbrMetallicRoughness":{
			"baseColorFactor":[1.0,
			1.0,
			1.0,
			1.0],
			"metallicFactor":1.0,
			"roughnessFactor":1.0
		},
		"emissiveFactor":[0.0,
		0.0,
		0.0],
		"alphaMode":"OPAQUE",
		"doubleSided":false,
		"name":""
	}]
}